<?xml version="1.0" encoding="utf-8"?>
<!-- Generator: Adobe Illustrator 16.0.0, SVG Export Plug-In . SVG Version: 6.00 Build 0)  -->
<!DOCTYPE svg PUBLIC "-//W3C//DTD SVG 1.1//EN" "http://www.w3.org/Graphics/SVG/1.1/DTD/svg11.dtd">
<svg version="1.1" id="Layer_1" xmlns="http://www.w3.org/2000/svg" xmlns:xlink="http://www.w3.org/1999/xlink" x="0px" y="0px"
	 width="428.271px" height="398.493px" viewBox="0 0 428.271 398.493" enable-background="new 0 0 428.271 398.493"
	 xml:space="preserve">
<path fill="#006965" d="M173.602,235.208c0,0,25.838,25.354,56.811,27.46l-2.071,31.766c0,0-35.651-7.996-50.347-20.291
	C171.801,268.959,171.751,254.369,173.602,235.208"/>
<path fill="#006965" d="M157.644,97.743c0,0-38.72-1.731-50.683-34.938c0,0-11.438,51.986,38.832,69.609"/>
<path fill="#006965" d="M206.185,108.297l-6.89,30.479c27.21,2.082,57.622,14.028,57.622,14.028s0.376-23.539-10.127-30.14
	C246.789,122.665,228.783,111.336,206.185,108.297"/>
<path fill="#006965" d="M286.846,262.875c0,0,34.456-4.62,52.189,41.538c0,0-6.071-14.762-64.106-5.758"/>
<g>
	<defs>
		<path id="SVGID_1_" d="M181.44,276.75c0.119,0.056,0.215,0.101,0.272,0.128c-0.082-0.04-0.22-0.113-0.404-0.229
			C181.364,276.691,181.407,276.724,181.44,276.75"/>
	</defs>
	<clipPath id="SVGID_2_">
		<use xlink:href="#SVGID_1_"  overflow="visible"/>
	</clipPath>
	
		<linearGradient id="SVGID_3_" gradientUnits="userSpaceOnUse" x1="-48.7119" y1="405.9146" x2="-47.7119" y2="405.9146" gradientTransform="matrix(81.439 0 0 -81.439 4092.6523 33334.082)">
		<stop  offset="0" style="stop-color:#008D7D"/>
		<stop  offset="1" style="stop-color:#008D7D"/>
	</linearGradient>
	<rect x="181.308" y="276.648" clip-path="url(#SVGID_2_)" fill="url(#SVGID_3_)" width="0.404" height="0.229"/>
</g>
<g>
	<defs>
		<path id="SVGID_4_" d="M181.799,276.916c0,0-0.034-0.014-0.087-0.038C181.768,276.905,181.799,276.916,181.799,276.916"/>
	</defs>
	<clipPath id="SVGID_5_">
		<use xlink:href="#SVGID_4_"  overflow="visible"/>
	</clipPath>
	
		<linearGradient id="SVGID_6_" gradientUnits="userSpaceOnUse" x1="-48.7119" y1="405.9146" x2="-47.7119" y2="405.9146" gradientTransform="matrix(81.439 0 0 -81.439 4092.6523 33334.207)">
		<stop  offset="0" style="stop-color:#008D7D"/>
		<stop  offset="1" style="stop-color:#008D7D"/>
	</linearGradient>
	<rect x="181.712" y="276.877" clip-path="url(#SVGID_5_)" fill="url(#SVGID_6_)" width="0.087" height="0.038"/>
</g>
<g>
	<defs>
		<path id="SVGID_7_" d="M157.06,41.105c-0.012-0.005-0.021-0.008-0.021-0.008C157.047,41.101,157.053,41.104,157.06,41.105"/>
	</defs>
	<clipPath id="SVGID_8_">
		<use xlink:href="#SVGID_7_"  overflow="visible"/>
	</clipPath>
	
		<linearGradient id="SVGID_9_" gradientUnits="userSpaceOnUse" x1="-48.7119" y1="405.9146" x2="-47.7119" y2="405.9146" gradientTransform="matrix(81.439 0 0 -81.439 4092.6523 33098.3945)">
		<stop  offset="0" style="stop-color:#008D7D"/>
		<stop  offset="1" style="stop-color:#008D7D"/>
	</linearGradient>
	<rect x="157.039" y="41.098" clip-path="url(#SVGID_8_)" fill="url(#SVGID_9_)" width="0.021" height="0.008"/>
</g>
<g>
	<defs>
		<path id="SVGID_10_" d="M133.34,157.67c-31.303,80.05,42.4,116.408,48.1,119.079c-0.033-0.025-0.076-0.059-0.132-0.102
			c-0.339-0.218-0.836-0.592-1.413-1.186c-8.791-7.685-49.459-48.5-17.638-122.006c34.709-80.179-0.474-109-4.882-112.209
			c-0.106-0.046-0.208-0.095-0.315-0.142C157.728,41.414,175.199,50.628,133.34,157.67"/>
	</defs>
	<clipPath id="SVGID_11_">
		<use xlink:href="#SVGID_10_"  overflow="visible"/>
	</clipPath>
	
		<linearGradient id="SVGID_12_" gradientUnits="userSpaceOnUse" x1="-48.7119" y1="405.8843" x2="-47.7119" y2="405.8843" gradientTransform="matrix(157.7779 273.2793 273.2793 -157.7779 -103133.8438 77425.3984)">
		<stop  offset="0" style="stop-color:#3E909D"/>
		<stop  offset="0.1525" style="stop-color:#328B8F"/>
		<stop  offset="0.4906" style="stop-color:#118076"/>
		<stop  offset="0.6704" style="stop-color:#007C6D"/>
		<stop  offset="1" style="stop-color:#007C6D"/>
	</linearGradient>
	<polygon clip-path="url(#SVGID_11_)" fill="url(#SVGID_12_)" points="173.234,0 299.003,217.838 125.77,317.855 0,100.017 	"/>
</g>
<g>
	<defs>
		<path id="SVGID_13_" d="M162.257,153.457c-31.821,73.506,8.847,114.321,17.638,122.006c-5.592-5.749-19.018-32.571,24.082-146.41
			c1.887-4.984,2.967-10.248,3.074-15.578c0.347-17.259-4.913-52.525-49.676-72.227C161.783,44.457,196.966,73.277,162.257,153.457"
			/>
	</defs>
	<clipPath id="SVGID_14_">
		<use xlink:href="#SVGID_13_"  overflow="visible"/>
	</clipPath>
	
		<linearGradient id="SVGID_15_" gradientUnits="userSpaceOnUse" x1="-48.7119" y1="405.8833" x2="-47.7119" y2="405.8833" gradientTransform="matrix(107.0481 185.4128 185.4128 -107.0481 -69926.1953 52546.4336)">
		<stop  offset="0" style="stop-color:#479DA0"/>
		<stop  offset="0.3785" style="stop-color:#2C938C"/>
		<stop  offset="0.7335" style="stop-color:#108E81"/>
		<stop  offset="1" style="stop-color:#008D7D"/>
	</linearGradient>
	<polygon clip-path="url(#SVGID_14_)" fill="url(#SVGID_15_)" points="188.158,7.922 308.816,216.909 149.677,308.788 
		29.018,99.801 	"/>
</g>
<g>
	<defs>
		<path id="SVGID_16_" d="M246.813,122.36c0.341,0.215,0.839,0.587,1.419,1.177c8.832,7.639,49.719,48.236,18.292,121.911
			c-34.28,80.363,1.058,108.995,5.481,112.18c0.106,0.047,0.208,0.094,0.315,0.14c-0.67-0.304-18.188-9.425,23.096-116.688
			c30.875-80.217-43.021-116.18-48.736-118.821C246.715,122.285,246.757,122.317,246.813,122.36"/>
	</defs>
	<clipPath id="SVGID_17_">
		<use xlink:href="#SVGID_16_"  overflow="visible"/>
	</clipPath>
	
		<linearGradient id="SVGID_18_" gradientUnits="userSpaceOnUse" x1="-48.7119" y1="405.9438" x2="-47.7119" y2="405.9438" gradientTransform="matrix(158.1532 273.9294 273.9294 -158.1532 -103275.9531 77682.6094)">
		<stop  offset="0" style="stop-color:#489D9F"/>
		<stop  offset="0.0025" style="stop-color:#489D9F"/>
		<stop  offset="0.375" style="stop-color:#2C938B"/>
		<stop  offset="0.7247" style="stop-color:#108E80"/>
		<stop  offset="1" style="stop-color:#008D7D"/>
	</linearGradient>
	<polygon clip-path="url(#SVGID_17_)" fill="url(#SVGID_18_)" points="302.78,81.535 428.271,298.891 255.756,398.493 
		130.265,181.136 	"/>
</g>
<g>
	<defs>
		<path id="SVGID_19_" d="M225.861,271.001c-1.86,4.994-2.911,9.337-2.99,14.666c-0.256,17.263,4.269,52.5,49.135,71.961
			c-4.424-3.185-39.762-31.816-5.481-112.18c31.427-73.675-9.46-114.272-18.292-121.911
			C253.856,129.257,268.351,156.934,225.861,271.001"/>
	</defs>
	<clipPath id="SVGID_20_">
		<use xlink:href="#SVGID_19_"  overflow="visible"/>
	</clipPath>
	
		<linearGradient id="SVGID_21_" gradientUnits="userSpaceOnUse" x1="-48.7119" y1="405.936" x2="-47.7119" y2="405.936" gradientTransform="matrix(153.893 266.5505 266.5505 -153.893 -100546.2656 75521.8828)">
		<stop  offset="0" style="stop-color:#499D9A"/>
		<stop  offset="1" style="stop-color:#007C6D"/>
	</linearGradient>
	<polygon clip-path="url(#SVGID_20_)" fill="url(#SVGID_21_)" points="279.117,90.916 399.315,299.106 241.449,390.25 
		121.25,182.06 	"/>
</g>
</svg>
